<?xml version="1.0" standalone="no"?>
<!DOCTYPE svg PUBLIC "-//W3C//DTD SVG 20010904//EN"
 "http://www.w3.org/TR/2001/REC-SVG-20010904/DTD/svg10.dtd">
<svg version="1.0" xmlns="http://www.w3.org/2000/svg"
 width="763.000000pt" height="172.000000pt" viewBox="0 0 763.000000 172.000000"
 preserveAspectRatio="xMidYMid meet">

<g transform="translate(0.000000,172.000000) scale(0.100000,-0.100000)"
fill="#000000" stroke="none">
<path d="M345 1698 c-122 -23 -234 -105 -292 -215 -47 -87 -56 -160 -51 -421
4 -208 7 -232 28 -289 44 -117 127 -202 237 -243 188 -70 421 -40 548 71 43
38 97 117 89 131 -3 5 -50 31 -103 58 l-98 49 -30 -43 c-43 -61 -108 -91 -198
-91 -101 1 -171 42 -218 130 -21 38 -22 54 -22 265 0 216 1 227 23 273 46 92
129 134 247 124 76 -6 131 -36 168 -92 12 -19 28 -35 35 -35 11 0 174 83 192
97 10 9 -45 95 -81 128 -106 95 -297 137 -474 103z"/>
<path d="M1323 1695 c-134 -29 -239 -111 -294 -228 -41 -90 -49 -146 -49 -369
0 -230 12 -304 66 -395 79 -134 218 -203 409 -203 250 0 413 124 461 348 16
80 19 431 4 513 -15 80 -62 172 -115 224 -105 105 -300 150 -482 110z m262
-230 c33 -21 57 -47 79 -85 l31 -55 3 -192 c5 -242 -3 -284 -64 -352 -35 -39
-58 -54 -97 -66 -101 -30 -188 -10 -255 58 -64 65 -72 104 -72 333 0 227 13
280 80 336 53 45 94 58 176 55 59 -2 79 -7 119 -32z"/>
<path d="M3638 1691 c-36 -9 -91 -34 -122 -54 -31 -20 -58 -37 -61 -37 -3 0
-5 20 -5 45 l0 46 -102 -3 -103 -3 0 -825 0 -825 110 0 110 0 3 282 2 281 58
-34 c86 -52 148 -67 261 -62 78 3 107 9 154 31 114 52 178 125 220 250 19 56
21 84 22 312 0 266 -6 309 -57 409 -83 162 -287 240 -490 187z m149 -196 c68
-20 126 -83 148 -160 14 -46 16 -93 13 -258 -3 -183 -5 -206 -25 -242 -46 -87
-114 -125 -220 -125 -84 0 -137 23 -184 79 -53 61 -59 94 -59 318 0 230 9 272
71 334 63 63 159 83 256 54z"/>
<path d="M2097 1683 c-12 -11 -8 -784 4 -849 25 -135 97 -232 217 -291 74 -37
79 -38 186 -38 126 0 185 16 266 70 l49 33 3 -42 3 -41 105 0 105 0 3 583 2
583 -112 -3 -113 -3 -5 -405 c-5 -370 -7 -408 -24 -440 -81 -153 -272 -187
-393 -68 -71 70 -73 83 -73 530 l0 388 -108 0 c-60 0 -112 -3 -115 -7z"/>
</g>
</svg>
