<?xml version="1.0" standalone="no"?>
<!DOCTYPE svg PUBLIC "-//W3C//DTD SVG 20010904//EN"
 "http://www.w3.org/TR/2001/REC-SVG-20010904/DTD/svg10.dtd">
<svg version="1.0" xmlns="http://www.w3.org/2000/svg"
 width="598.000000pt" height="253.000000pt" viewBox="0 0 598.000000 253.000000"
 preserveAspectRatio="xMidYMid meet">

<g transform="translate(0.000000,253.000000) scale(0.100000,-0.100000)"
fill="#000000" stroke="none">
<path d="M1869 1913 c-13 -17 -13 -17 6 -3 11 8 22 16 24 17 2 2 0 3 -6 3 -6
0 -17 -8 -24 -17z"/>
<path d="M1936 1873 c-6 -14 -5 -15 5 -6 7 7 10 15 7 18 -3 3 -9 -2 -12 -12z"/>
<path d="M1830 1850 c-6 -11 -8 -20 -6 -20 3 0 10 9 16 20 6 11 8 20 6 20 -3
0 -10 -9 -16 -20z"/>
<path d="M1910 1830 c-6 -11 -8 -20 -6 -20 3 0 10 9 16 20 6 11 8 20 6 20 -3
0 -10 -9 -16 -20z"/>
<path d="M2505 1836 c-94 -41 -136 -115 -143 -251 -8 -154 34 -247 132 -294
36 -18 61 -21 177 -21 151 0 189 11 246 70 54 55 66 101 61 237 -4 127 -13
155 -65 207 -54 55 -94 66 -243 65 -89 0 -145 -4 -165 -13z m319 -107 c45 -35
56 -70 56 -169 0 -99 -11 -134 -56 -169 -24 -19 -40 -21 -146 -21 -181 0 -209
23 -216 175 -5 108 10 154 60 185 28 17 50 20 154 20 108 0 124 -2 148 -21z"/>
<path d="M3282 1825 c-104 -53 -149 -174 -125 -339 14 -98 48 -151 122 -188
52 -26 62 -28 191 -28 136 0 136 0 190 33 42 25 61 44 82 86 26 49 28 62 28
170 0 108 -2 122 -27 172 -21 40 -40 61 -77 84 -48 29 -54 30 -190 33 -136 3
-143 2 -194 -23z m349 -114 l39 -39 0 -112 0 -112 -39 -39 -39 -39 -122 0
c-139 0 -176 13 -201 73 -18 42 -18 192 0 234 25 60 60 73 200 73 l123 0 39
-39z"/>
<path d="M4056 1835 c-106 -37 -145 -155 -85 -254 34 -57 83 -71 249 -71 167
0 190 -8 190 -64 0 -18 -6 -41 -14 -52 -13 -18 -30 -19 -230 -22 l-216 -3 0
-50 0 -50 218 3 c245 3 275 11 320 78 20 30 23 45 20 102 -3 58 -8 72 -33 99
-49 52 -78 59 -244 59 l-150 0 -20 26 c-26 33 -26 55 -2 85 19 23 23 24 210
27 l191 3 0 50 0 49 -182 0 c-129 -1 -194 -5 -222 -15z"/>
<path d="M4640 1800 l0 -49 113 -3 112 -3 3 -237 2 -238 50 0 50 0 0 240 0
240 115 0 115 0 0 50 0 50 -280 0 -280 0 0 -50z"/>
<path d="M1800 1800 c-6 -11 -8 -20 -6 -20 3 0 10 9 16 20 6 11 8 20 6 20 -3
0 -10 -9 -16 -20z"/>
<path d="M1864 1758 c-4 -7 -14 -24 -22 -38 -14 -24 -13 -24 3 -5 20 24 37 55
31 55 -3 0 -8 -6 -12 -12z"/>
<path d="M1754 1728 c-4 -7 -14 -24 -22 -38 -14 -24 -13 -24 3 -5 20 24 37 55
31 55 -3 0 -8 -6 -12 -12z"/>
<path d="M1770 1610 c-6 -11 -8 -20 -6 -20 3 0 10 9 16 20 6 11 8 20 6 20 -3
0 -10 -9 -16 -20z"/>
<path d="M1650 1560 c-6 -11 -8 -20 -6 -20 3 0 10 9 16 20 6 11 8 20 6 20 -3
0 -10 -9 -16 -20z"/>
<path d="M1735 1554 c-9 -15 -12 -23 -6 -20 11 7 35 46 28 46 -3 0 -12 -12
-22 -26z"/>
<path d="M1187 1493 c-3 -5 5 -8 18 -8 13 0 21 3 18 8 -2 4 -10 7 -18 7 -8 0
-16 -3 -18 -7z"/>
<path d="M1693 1488 c-15 -20 -25 -38 -20 -38 3 0 12 11 21 25 17 26 16 35 -1
13z"/>
<path d="M1140 1430 c-17 -22 -29 -40 -27 -40 3 0 20 18 37 40 17 22 29 40 27
40 -3 0 -20 -18 -37 -40z"/>
<path d="M1300 1436 c0 -2 8 -10 18 -17 15 -13 16 -12 3 4 -13 16 -21 21 -21
13z"/>
<path d="M1560 1410 c-6 -11 -8 -20 -6 -20 3 0 10 9 16 20 6 11 8 20 6 20 -3
0 -10 -9 -16 -20z"/>
<path d="M1340 1406 c0 -2 8 -10 18 -17 15 -13 16 -12 3 4 -13 16 -21 21 -21
13z"/>
<path d="M1196 1383 c-6 -14 -5 -15 5 -6 7 7 10 15 7 18 -3 3 -9 -2 -12 -12z"/>
<path d="M1280 1365 c13 -14 26 -25 28 -25 3 0 -5 11 -18 25 -13 14 -26 25
-28 25 -3 0 5 -11 18 -25z"/>
<path d="M1080 1350 c-12 -16 -19 -30 -16 -30 2 0 14 14 26 30 12 17 19 30 16
30 -2 0 -14 -13 -26 -30z"/>
<path d="M1595 1338 c-16 -24 -22 -38 -14 -31 15 12 53 73 46 73 -2 0 -17 -19
-32 -42z"/>
<path d="M1174 1348 c-4 -7 -14 -24 -22 -38 -14 -24 -13 -24 3 -5 20 24 37 55
31 55 -3 0 -8 -6 -12 -12z"/>
<path d="M1445 1320 c10 -11 20 -20 23 -20 3 0 -3 9 -13 20 -10 11 -20 20 -23
20 -3 0 3 -9 13 -20z"/>
<path d="M1404 1256 c73 -70 99 -80 116 -43 10 20 10 20 -3 5 -23 -28 -40 -22
-113 43 l-69 61 69 -66z"/>
<path d="M1019 1263 c-13 -16 -12 -17 4 -4 16 13 21 21 13 21 -2 0 -10 -8 -17
-17z"/>
<path d="M1120 1260 c-6 -11 -8 -20 -6 -20 3 0 10 9 16 20 6 11 8 20 6 20 -3
0 -10 -9 -16 -20z"/>
<path d="M985 1214 c-9 -15 -12 -23 -6 -20 11 7 35 46 28 46 -3 0 -12 -12 -22
-26z"/>
<path d="M1789 1183 l-34 -38 35 31 c19 17 42 34 50 37 13 5 13 6 -1 6 -8 1
-31 -16 -50 -36z"/>
<path d="M1866 1197 c3 -10 9 -15 12 -12 3 3 0 11 -7 18 -10 9 -11 8 -5 -6z"/>
<path d="M852 1193 l38 -4 -16 -27 -16 -27 20 25 c26 31 20 40 -26 38 l-37 -1
37 -4z"/>
<path d="M678 1183 c17 -2 47 -2 65 0 17 2 3 4 -33 4 -36 0 -50 -2 -32 -4z"/>
<path d="M1054 1158 c-4 -7 -14 -24 -22 -38 -14 -24 -13 -24 3 -5 20 24 37 55
31 55 -3 0 -8 -6 -12 -12z"/>
<path d="M1836 1111 l-40 -46 44 42 c24 23 42 44 40 46 -3 2 -23 -17 -44 -42z"/>
<path d="M630 1140 c0 -5 5 -10 11 -10 5 0 7 5 4 10 -3 6 -8 10 -11 10 -2 0
-4 -4 -4 -10z"/>
<path d="M1630 1013 l-125 -128 128 125 c70 69 127 126 127 127 0 8 -14 -6
-130 -124z"/>
<path d="M678 1123 c12 -2 30 -2 40 0 9 3 -1 5 -23 4 -22 0 -30 -2 -17 -4z"/>
<path d="M835 1120 c-16 -7 -17 -9 -3 -9 9 -1 20 4 23 9 7 11 7 11 -20 0z"/>
<path d="M900 1080 c-6 -11 -8 -20 -6 -20 3 0 10 9 16 20 6 11 8 20 6 20 -3 0
-10 -9 -16 -20z"/>
<path d="M1089 1083 c-11 -15 -11 -16 1 -6 11 10 19 9 39 -10 l26 -22 -24 28
c-14 15 -25 27 -27 27 -1 0 -8 -8 -15 -17z"/>
<path d="M1003 1078 c-15 -20 -25 -38 -20 -38 3 0 12 11 21 25 17 26 16 35 -1
13z"/>
<path d="M1064 1049 c-3 -6 9 -25 27 -43 l34 -31 -29 32 c-15 17 -25 36 -22
42 4 6 5 11 2 11 -3 0 -8 -5 -12 -11z"/>
<path d="M1695 958 l-60 -63 63 60 c34 33 62 61 62 62 0 8 -10 -1 -65 -59z"/>
<path d="M1245 960 c27 -27 51 -50 54 -50 3 0 -17 23 -44 50 -27 28 -51 50
-54 50 -3 0 17 -22 44 -50z"/>
<path d="M830 960 c-6 -11 -8 -20 -6 -20 3 0 10 9 16 20 6 11 8 20 6 20 -3 0
-10 -9 -16 -20z"/>
<path d="M896 913 c-20 -32 -27 -46 -14 -31 26 30 62 88 55 88 -2 0 -21 -26
-41 -57z"/>
<path d="M2870 960 c0 -5 5 -10 10 -10 6 0 10 5 10 10 0 6 -4 10 -10 10 -5 0
-10 -4 -10 -10z"/>
<path d="M4891 918 c1 -55 5 -50 11 15 2 20 0 37 -4 37 -4 0 -7 -24 -7 -52z"/>
<path d="M2540 953 c1 -18 18 -35 24 -24 4 6 2 11 -4 11 -6 0 -8 5 -5 10 3 6
1 10 -4 10 -6 0 -11 -3 -11 -7z"/>
<path d="M2760 951 c0 -17 18 -21 24 -6 3 9 0 15 -9 15 -8 0 -15 -4 -15 -9z"/>
<path d="M3740 951 c0 -5 47 -9 105 -9 58 0 105 4 105 9 0 5 -47 9 -105 9 -58
0 -105 -4 -105 -9z"/>
<path d="M5037 873 c6 -119 14 -130 10 -16 -2 58 1 94 7 97 6 2 4 5 -5 5 -15
1 -16 -10 -12 -86z"/>
<path d="M795 900 c-9 -16 -13 -30 -11 -30 3 0 12 14 21 30 9 17 13 30 11 30
-3 0 -12 -13 -21 -30z"/>
<path d="M3848 810 c-2 -66 0 -120 5 -120 4 0 7 54 7 120 0 66 -2 120 -4 120
-3 0 -6 -54 -8 -120z"/>
<path d="M1215 880 c21 -22 41 -40 44 -40 3 0 -13 18 -34 40 -21 22 -41 40
-44 40 -3 0 13 -18 34 -40z"/>
<path d="M2566 903 c-6 -14 -5 -15 5 -6 7 7 10 15 7 18 -3 3 -9 -2 -12 -12z"/>
<path d="M1347 870 c23 -24 44 -42 46 -40 2 3 -17 23 -42 44 l-46 40 42 -44z"/>
<path d="M2736 894 c-8 -22 1 -31 16 -16 9 9 9 15 1 23 -7 7 -12 5 -17 -7z"/>
<path d="M2576 881 c-4 -6 -2 -11 4 -11 6 0 8 -4 5 -10 -3 -5 -2 -17 3 -26 6
-11 11 -13 16 -5 4 6 2 11 -4 11 -6 0 -8 4 -5 10 3 5 2 17 -3 26 -6 11 -11 13
-16 5z"/>
<path d="M2870 790 c0 -60 4 -100 10 -100 6 0 10 40 10 100 0 60 -4 100 -10
100 -6 0 -10 -40 -10 -100z"/>
<path d="M3020 872 c-19 -16 -21 -22 -11 -38 11 -17 11 -17 5 5 -4 17 -3 21 6
16 9 -5 11 -4 6 3 -9 15 36 26 75 18 19 -3 28 -2 24 4 -10 17 -81 11 -105 -8z"/>
<path d="M3251 880 c0 -23 48 -177 48 -156 1 23 -28 136 -40 156 -7 13 -8 13
-8 0z"/>
<path d="M3370 886 c0 -2 7 -6 15 -10 8 -3 15 -1 15 4 0 6 -7 10 -15 10 -8 0
-15 -2 -15 -4z"/>
<path d="M3479 795 c-12 -52 -26 -95 -30 -95 -4 0 -16 36 -25 80 -10 44 -20
78 -22 75 -3 -3 3 -41 13 -85 14 -62 22 -80 35 -80 10 0 20 10 23 23 5 25 34
133 43 159 3 10 1 18 -4 18 -6 0 -20 -43 -33 -95z"/>
<path d="M4036 875 c4 -8 8 -15 10 -15 2 0 4 7 4 15 0 8 -4 15 -10 15 -5 0 -7
-7 -4 -15z"/>
<path d="M4080 881 c0 -6 9 -9 20 -8 11 1 20 5 20 9 0 4 -9 8 -20 8 -11 0 -20
-4 -20 -9z"/>
<path d="M4230 875 c-7 -8 -9 -15 -4 -15 5 0 3 -4 -5 -9 -9 -6 -10 -11 -2 -15
6 -4 12 -2 12 3 1 6 2 17 3 24 1 8 18 12 49 12 26 0 47 3 47 8 0 14 -87 7
-100 -8z"/>
<path d="M4480 790 c0 -63 4 -100 10 -100 7 0 10 35 8 100 -2 55 -6 100 -10
100 -5 0 -8 -45 -8 -100z"/>
<path d="M4529 873 c-12 -16 -12 -16 1 -6 8 6 31 13 50 16 l35 4 -36 1 c-24 1
-41 -4 -50 -15z"/>
<path d="M4767 884 c-13 -13 5 -25 19 -13 8 6 27 9 43 7 17 -2 28 -1 25 4 -6
9 -78 11 -87 2z"/>
<path d="M1454 848 l-29 -33 33 29 c30 28 37 36 29 36 -2 0 -16 -15 -33 -32z"/>
<path d="M1555 833 c-43 -39 -44 -41 -9 -15 37 28 72 63 63 62 -2 -1 -26 -21
-54 -47z"/>
<path d="M4345 864 c2 -10 4 -23 4 -28 1 -6 6 -5 13 2 10 10 9 16 -4 29 -15
15 -16 15 -13 -3z"/>
<path d="M4618 873 c-8 -17 4 -183 13 -183 5 0 9 36 9 80 0 45 -4 80 -10 80
-5 0 -7 7 -4 15 6 15 -2 22 -8 8z"/>
<path d="M3351 819 c-7 -30 -16 -68 -18 -86 -3 -18 -11 -34 -19 -36 -10 -3 -9
-4 2 -3 12 1 22 23 35 76 11 41 18 81 17 89 -2 7 -9 -11 -17 -40z"/>
<path d="M750 820 c-11 -22 -18 -40 -15 -40 2 0 14 18 25 40 11 22 18 40 15
40 -2 0 -14 -18 -25 -40z"/>
<path d="M2725 848 c4 -10 3 -18 -2 -18 -13 0 -35 -49 -28 -61 4 -5 2 -9 -4
-9 -5 0 -11 -12 -13 -27 -5 -43 -23 -37 -36 12 -6 25 -16 45 -22 45 -5 0 -6 7
-3 17 4 11 3 14 -5 9 -16 -9 -15 -21 1 -38 7 -7 14 -16 14 -21 11 -79 41 -91
67 -26 9 22 14 45 11 50 -4 5 -1 9 5 9 6 0 8 5 5 10 -3 6 -2 10 3 10 15 0 24
32 12 44 -8 8 -9 6 -5 -6z"/>
<path d="M3144 835 c9 -13 16 -27 16 -29 0 -3 -33 -7 -72 -9 l-73 -3 78 -2
c42 -1 77 2 77 7 0 21 -20 61 -31 61 -7 0 -5 -9 5 -25z"/>
<path d="M4750 853 c0 -4 5 -15 10 -23 8 -13 10 -13 10 2 0 9 -4 20 -10 23 -5
3 -10 3 -10 -2z"/>
<path d="M840 830 c-6 -11 -8 -20 -6 -20 3 0 10 9 16 20 6 11 8 20 6 20 -3 0
-10 -9 -16 -20z"/>
<path d="M4050 771 c0 -46 -4 -71 -12 -74 -8 -3 -6 -6 5 -6 15 -1 17 9 17 74
0 41 -2 75 -5 75 -3 0 -5 -31 -5 -69z"/>
<path d="M4881 824 c0 -11 3 -14 6 -6 3 7 2 16 -1 19 -3 4 -6 -2 -5 -13z"/>
<path d="M1325 786 c28 -25 54 -46 59 -46 5 0 7 1 5 3 -2 2 -29 22 -59 46
l-55 43 50 -46z"/>
<path d="M4203 790 c0 -25 2 -35 4 -22 2 12 2 32 0 45 -2 12 -4 2 -4 -23z"/>
<path d="M4741 790 c1 -42 1 -43 10 -18 7 18 7 33 0 45 -8 14 -10 9 -10 -27z"/>
<path d="M2992 795 c0 -16 2 -22 5 -12 2 9 2 23 0 30 -3 6 -5 -1 -5 -18z"/>
<path d="M4370 810 c0 -5 -33 -11 -72 -13 l-73 -3 78 -2 c63 -2 77 1 77 13 0
8 -2 15 -5 15 -3 0 -5 -4 -5 -10z"/>
<path d="M1479 773 c-13 -16 -12 -17 4 -4 16 13 21 21 13 21 -2 0 -10 -8 -17
-17z"/>
<path d="M4881 754 c0 -11 3 -14 6 -6 3 7 2 16 -1 19 -3 4 -6 -2 -5 -13z"/>
<path d="M3006 744 c-3 -9 -3 -20 0 -26 11 -18 68 -36 96 -31 27 5 71 43 50
43 -7 0 -12 -4 -12 -9 0 -5 -14 -14 -31 -20 -44 -15 -103 9 -94 39 7 24 0 27
-9 4z"/>
<path d="M695 719 c-9 -17 -15 -33 -13 -35 3 -2 12 12 21 31 21 43 13 47 -8 4z"/>
<path d="M4215 741 c-10 -17 11 -38 48 -50 29 -10 30 -9 13 4 -11 8 -26 15
-34 15 -7 0 -11 4 -8 8 2 4 1 14 -3 21 -6 10 -10 10 -16 2z"/>
<path d="M4757 743 c-4 -3 -7 -11 -7 -17 0 -6 5 -5 12 2 6 6 9 14 7 17 -3 3
-9 2 -12 -2z"/>
<path d="M1408 733 c7 -3 16 -2 19 1 4 3 -2 6 -13 5 -11 0 -14 -3 -6 -6z"/>
<path d="M4345 719 c-4 -6 -17 -14 -29 -19 -21 -9 -21 -9 0 -9 11 -1 29 8 39
19 10 11 13 20 7 20 -6 0 -14 -5 -17 -11z"/>
<path d="M4859 714 c-8 -10 -24 -14 -46 -12 -18 2 -33 0 -33 -4 0 -17 67 -8
85 12 10 11 16 20 13 20 -3 0 -11 -7 -19 -16z"/>
<path d="M763 708 c-15 -20 -25 -38 -20 -38 3 0 12 11 21 25 17 26 16 35 -1
13z"/>
<path d="M4890 700 c0 -5 5 -10 11 -10 5 0 7 5 4 10 -3 6 -8 10 -11 10 -2 0
-4 -4 -4 -10z"/>
<path d="M5030 700 c0 -5 5 -10 10 -10 6 0 10 5 10 10 0 6 -4 10 -10 10 -5 0
-10 -4 -10 -10z"/>
<path d="M663 654 c-7 -20 19 -47 38 -39 8 3 21 15 28 28 13 22 13 22 -12 -2
-28 -25 -52 -20 -44 10 6 23 -1 25 -10 3z"/>
</g>
</svg>
